<svg xmlns="http://www.w3.org/2000/svg" width="35.493" height="46.691" viewBox="0 0 35.493 46.691">
    <defs>
        <style>
            .cls-1{fill:#ff80de}
        </style>
    </defs>
    <g id="Group_8" data-name="Group 8" transform="translate(-554.283 -747.808)">
        <path id="Path_77" d="M561.765 748.363c.231-.033.462-.048.692-.06a2.272 2.272 0 0 0-.692.06z" class="cls-1" data-name="Path 77" transform="translate(0 -.016)"/>
        <path id="Path_78" d="M589.3 781.64l.044.162a.18.18 0 0 0-.044-.162z" class="cls-1" data-name="Path 78" transform="translate(0 .921)"/>
        <path id="Path_79" d="M564.315 748.155a.874.874 0 0 0 .316.316.373.373 0 0 0 .065-.118z" class="cls-1" data-name="Path 79" transform="translate(0 -.011)"/>
        <path id="Path_80" d="M554.354 759.689c0 .269-.111.624.156.6l-.067-.262a.315.315 0 0 1 .052-.04c-.054-.007-.105-.156-.141-.298z" class="cls-1" data-name="Path 80" transform="translate(0 .331)"/>
        <path id="Path_81" d="M566.879 748.177a.239.239 0 0 0 .075-.042c-.02.011-.048.025-.075.042z" class="cls-1" data-name="Path 81" transform="translate(0 -.011)"/>
        <path id="Path_82" d="M554.5 760z" class="cls-1" data-name="Path 82" transform="translate(0 .329)"/>
        <path id="Path_83" d="M589.53 773.717c-.128.474-.607.366-.653-.023l.423-.155c-.261-.25-.159.406-.479-.109.048-.495.481-.333.618-.049l-.147-.6c.127-.035.194.106.355.143-.263-.246.424-1.037-.032-1.394l.126-.034c0-1.323-.142-1.923-.163-3-.366-.021-.285-.443-.58-.764a13.924 13.924 0 0 0 .373-2.625c-.182-.671-.309-.2-.526-.5.332-.049.3-1 .54-.508a15.86 15.86 0 0 0-.336-2.912c-.137.157-.2.334-.31.242a.6.6 0 0 1 .07-.392c.062-.109.147-.207.228-.183l.035.08a5.416 5.416 0 0 1-.143-1.484c.011-.522.042-1.074.049-1.629 0-.275 0-.554-.027-.819a4.577 4.577 0 0 0-.112-.763 2.051 2.051 0 0 0-.528-1.057c-.144-.2-.3-.39-.451-.576s-.311-.359-.476-.521c-.132-.313-.036-.277.088-.232s.276.1.24-.2a5.466 5.466 0 0 1-1.239-1.483 2.6 2.6 0 0 0-1.169-1.164 2.164 2.164 0 0 0-1.485-1.735c-.378-.171-.772-.3-1.133-.447-.09-.036-.178-.075-.263-.117s-.169-.081-.249-.128a2.079 2.079 0 0 1-.229-.158 1.588 1.588 0 0 1-.207-.183l.024.318c-.166.114-.245.049-.314-.056s-.124-.252-.231-.3c.01.242.29.329.093.463-.31-.011-.618-.018-.928-.023h-.449q-.2 0-.393-.012a13.137 13.137 0 0 1-1.59-.2c-1.065-.193-2.137-.467-3.188-.606-.77-.083-.437 1.59-1.407.857l.275-.571c-1.552.685-3.174-.024-4.694.558.091-.133.093-.3.241-.3-.321-.415-1.187-.021-1.192.318-.237-.039-.055-.306-.2-.479-.322-.244-.808.53-.979.117-.019-.044.025-.087.074-.122-.273.114-.883-.05-.7.383-.571-.229-1.092.213-1.547-.071-.3.535-.976-.258-1.07.5.037-.391-.267-.549-.631-.536a1.418 1.418 0 0 0-.959.449c.114-.267-.4-.152-.282-.514a1.5 1.5 0 0 0-.625.326.408.408 0 0 0-.119.487.691.691 0 0 0-.378-.094.773.773 0 0 0-.334.094 2.1 2.1 0 0 0-.546.487c-.325.363-.571.688-1.025.346a14.893 14.893 0 0 0-1.449 2.125 17.669 17.669 0 0 0-1.051 2.194c-.228-.238-.042-.65.163-1.021s.41-.721.167-.972a9.559 9.559 0 0 0-.63 2.05 10.126 10.126 0 0 1-.586 1.915c-.094.169-.137.085-.162-.069s-.022-.373-.046-.466c-.149.816-.351 1.553-.491 2.3a6.215 6.215 0 0 0-.081 2.226.184.184 0 0 1 .24.047 1.683 1.683 0 0 1 .274.406c.085.168.169.325.244.452s.139.22.19.23c-.764-.412-.192 1.219-1.157.563.05.16.177.362.355.325-.052.237-.156.313-.359.072.145.871.428.562.422 1.351-.129 0-.179-.162-.33-.243a1.911 1.911 0 0 1 .394 1.467c-.068-.035-.153.02-.173-.1.06 1.111.661 1.911.422 3.144-.56-.37-.184.427-.669.494l.145.676.235-.271c-.008.591.345 1.114.186 1.623l-.2-.44.092 1.109.184-.628c.25.6.614-.065.479.723-.049-.16-.006.592-.292.9a1.291 1.291 0 0 1 .2 1.031c-.156.114-.537-.091-.64-.017.4.289.112 1.385.544 1.751a.411.411 0 0 0-.407-.088l.329.242c-.106.274-.157.314-.36.27-.06.825.616-.262.351.716-.027-.076-.076-.04-.126-.2-.139.983.209 1.9.047 2.8-.488.266-.12-.79-.532-.485a26.809 26.809 0 0 1 .47 3.956l.054-.234c.689.175-.34.938-.015 1.575-.051-.156-.383-.205-.306-.163a11.719 11.719 0 0 0 .386 3.072l-.177-.162a14.919 14.919 0 0 0-.172 1.889c.177.163.149.478.406.287-1.008 1.693.54 3.23-.3 4.733 0-.18-.154-.428-.155-.286l.163 1.28c.3-.1.182-.167.415-.436a1.215 1.215 0 0 1 .311.739h33.2a.592.592 0 0 1-.025-.64l.068.142c.165-1.727-.184-3.637.391-4.954-.549-.25.245-1.71-.521-1.821a6.442 6.442 0 0 0 .772-2.093c.035-.372-.478-.554-.558-1.012l.4-.011-.42-.623.479-.331-.1-.43c-.023.172-.18.364-.295.338a1.81 1.81 0 0 1 .484-1.654l-.338-1.59c.122.027.183.186.25.353-.225-.6.463-.051.116-.773-.091.1-.239-.057-.32-.074a3.46 3.46 0 0 0 .143-1.924l.276.125c.06-1.19-.143-2.496-.138-3.82z" class="cls-1" data-name="Path 83"/>
        <path id="Path_84" d="M589.478 783.153h-.092l.081.115z" class="cls-1" data-name="Path 84" transform="translate(0 .96)"/>
        <path id="Path_85" d="M554.354 759.681a.5.5 0 0 0-.009-.111c-.055-.27-.038-.087.009.111z" class="cls-1" data-name="Path 85" transform="translate(0 .318)"/>
        <path id="Path_86" d="M555.177 771.573a2.3 2.3 0 0 1-.173-.366c-.028.202-.035.36.173.366z" class="cls-1" data-name="Path 86" transform="translate(0 .643)"/>
        <path id="Path_87" d="M561.689 748.375a.02.02 0 0 1 0 .008c.026-.008.05-.012.076-.017z" class="cls-1" data-name="Path 87" transform="translate(0 -.018)"/>
        <path id="Path_88" d="M555.011 770.66a.783.783 0 0 0-.007.529 1.184 1.184 0 0 0 .007-.529z" class="cls-1" data-name="Path 88" transform="translate(0 .634)"/>
        <path id="Path_89" d="M554.843 776.689l-.206.327.3.155z" class="cls-1" data-name="Path 89" transform="translate(0 .799)"/>
    </g>
</svg>
