<svg xmlns="http://www.w3.org/2000/svg" width="46.053" height="10.698" viewBox="0 0 46.053 10.698">
    <g data-name="Group 13">
        <ellipse cx="1.929" cy="1.557" data-name="Ellipse 3" rx="1.929" ry="1.557" transform="translate(3.13)"/>
        <path d="M28.853 9.336H27.03a7.206 7.206 0 0 1-3.31-1.849V5.764a2.177 2.177 0 0 0 1.91-1.966 2.613 2.613 0 0 0-5.1 0 2.177 2.177 0 0 0 1.91 1.966v1.76a5.343 5.343 0 0 1-3.3 1.811h-1.837a.637.637 0 0 0-.076 1.27 8.141 8.141 0 0 0 1.99 0h7.713a5.708 5.708 0 0 0 .99.086 5.612 5.612 0 0 0 1.046-.1.637.637 0 0 0-.117-1.263zm-6.491 0a7.456 7.456 0 0 0 .764-.67q.433.368.868.67z" data-name="Path 94"/>
        <path d="M2.047 3.961a.643.643 0 0 1-.141-.016l-1.41-.321a.637.637 0 0 1-.5-.621.647.647 0 0 1 .016-.141.637.637 0 0 1 .764-.481l1.409.32a.638.638 0 0 1 .5.621.65.65 0 0 1-.016.142.639.639 0 0 1-.622.497z" data-name="Path 95"/>
        <ellipse cx="1.929" cy="1.557" data-name="Ellipse 4" rx="1.929" ry="1.557" transform="translate(39.066)"/>
        <path d="M44.005 3.96a.638.638 0 0 1-.621-.5.65.65 0 0 1-.016-.142.639.639 0 0 1 .5-.621l1.41-.32a.637.637 0 0 1 .764.481.647.647 0 0 1 .016.141.637.637 0 0 1-.5.621l-1.41.321a.646.646 0 0 1-.143.019z" data-name="Path 96"/>
    </g>
</svg>
