<svg xmlns="http://www.w3.org/2000/svg" width="36.508" height="49.539" viewBox="0 0 126.508 49.539">
    <defs>
        <style>
            .cls-1{fill:#231f20}
        </style>
    </defs>
    <g id="Group_88" data-name="Group 88" transform="translate(-871.108 -595.645)">
        <path id="Path_203" d="M996.3 625.05a2.371 2.371 0 0 0-2.279-1.735q-38.88.4-77.726 2.252-9.357.45-18.712.987c-5.611.322-11.519.181-17.051 1.265-6.617 1.3-12.857 8.452-7.232 14.6 2.058 2.249 5.392-1.1 3.342-3.342-2.564-2.8 1.473-5.75 3.763-6.4a33.1 33.1 0 0 1 6.891-.784c3.918-.248 7.839-.47 11.759-.691a47.824 47.824 0 0 1 10.32 12.651 2.393 2.393 0 0 0 4.319-.565 29.143 29.143 0 0 0 1.442-12.934q9-.439 18.007-.806 23.537-.936 47.089-1.32a2.362 2.362 0 0 0 1.021 1.814 38.256 38.256 0 0 1 11.945 13.977c1.107 2.161 4.358 1.044 4.4-1.193a97.215 97.215 0 0 0-1.298-17.776zm-85.872 11.682a51.467 51.467 0 0 0-4.886-5.884c1.639-.087 3.278-.168 4.917-.252a23.205 23.205 0 0 1-.035 6.136zm76.013-8.586c1.849-.026 3.7-.056 5.547-.077.3 2.145.552 4.291.7 6.443a43.321 43.321 0 0 0-6.251-6.366z" class="cls-1" data-name="Path 203"/>
        <path id="Path_204" d="M891.351 598.912a4.764 4.764 0 0 0-6.266 3.2 5.315 5.315 0 0 0 .8 4.39l.008.157a2.462 2.462 0 0 0 1.735 2.279 5.763 5.763 0 0 0 6.994-3.143 5.216 5.216 0 0 0-3.271-6.883z" class="cls-1" data-name="Path 204"/>
        <path id="Path_205" d="M991.643 598.479a5.5 5.5 0 0 0-7.087-2.3 4.273 4.273 0 0 0-2.237 4.424 1.888 1.888 0 0 0-.052 1.433 5.166 5.166 0 0 0 6.46 3.036 4.629 4.629 0 0 0 2.916-6.593z" class="cls-1" data-name="Path 205"/>
    </g>
</svg>
