<svg xmlns="http://www.w3.org/2000/svg" id="Group_10" width="33.05" height="19.514" data-name="Group 10" viewBox="0 0 33.05 19.514">
    <defs>
        <style>
            .cls-1{fill:#d3182a}
        </style>
    </defs>
    <path id="Path_90" d="M718.738 766.783l5.739-2.582s2.3 5.451-1.435 7.747-4.304-5.165-4.304-5.165z" class="cls-1" data-name="Path 90" transform="translate(-701.469 -753.315)"/>
    <g id="Group_9" data-name="Group 9">
        <path id="Path_91" d="M733.261 752.966a1.717 1.717 0 0 0 0 3.433 1.717 1.717 0 0 0 0-3.433z" data-name="Path 91" transform="translate(-701.869 -752.966)"/>
        <path id="Path_92" d="M702.574 752.966a1.717 1.717 0 0 0 0 3.433 1.717 1.717 0 0 0 0-3.433z" data-name="Path 92" transform="translate(-700.916 -752.966)"/>
        <path id="Path_93" d="M725.3 760.346a10.143 10.143 0 0 1-7.234 5.39c-2.948.626-8.3.837-9.369-2.775a.817.817 0 0 0-1.575.434c1.248 4.213 6.389 4.611 10.066 4.136.153-.02.3-.047.456-.071 0 2.758 1.891 6.1 5.134 5.03 3.733-1.236 3.031-5.842 2.162-8.7 0-.012-.01-.02-.014-.032a10.5 10.5 0 0 0 1.783-2.586c.46-.944-.949-1.772-1.409-.826zm-2.245 10.1a2.053 2.053 0 0 1-3.057-.329 4.126 4.126 0 0 1-.709-3.018 13.833 13.833 0 0 0 1.312-.448 7.883 7.883 0 0 0 .725 2.659c.443.952 1.852.124 1.41-.825a5.855 5.855 0 0 1-.533-2.477.9.9 0 0 0-.012-.117 11.92 11.92 0 0 0 1.4-.924c.534 1.833.995 4.065-.535 5.479z" data-name="Path 93" transform="translate(-701.107 -753.182)"/>
    </g>
</svg>
