<svg xmlns="http://www.w3.org/2000/svg" width="35" height="21.442" viewBox="0 0 35 21.442">
    <defs>
        <style>
            .cls-1{fill:#231f20}
        </style>
    </defs>
    <g id="Group_14" data-name="Group 14">
        <path id="Path_97" d="M881.591 768.5a3.451 3.451 0 0 0-2.974-1.623 4.91 4.91 0 0 0-.329-5.414 5.044 5.044 0 0 0-6.361-1.1 4.338 4.338 0 0 0-4.024-2.726 4.249 4.249 0 0 0-3.651 2.251 3.787 3.787 0 0 0-3.976-1.495c-2.157.512-3.315 2.278-4.163 4.161-1.889-1.089-4.465-1.086-5.843.865a3.792 3.792 0 0 0-.069 4.2 3.31 3.31 0 0 0-2.759 1.358 2.719 2.719 0 0 0 .829 3.821c2.034 1.435 5.268.515 7.563.373q4.449-.273 8.909-.265t8.907.3c2.244.148 5.063.814 6.982-.728a3.124 3.124 0 0 0 .959-3.978zm-12.27 2.568c-1.524-.053-9.25-.036-11.585.077a1.026 1.026 0 0 0 .076-.092 38.215 38.215 0 0 1 2.707-3.935c.84-.962 4.278-2.745 3.9.114-.137 1.03 1.322 1.189 1.793.485.712-1.062 2.174-2.611 3.606-1.773 1.589.927-.548 4.913-.497 5.121z" class="cls-1" data-name="Path 97" transform="translate(-846.968 -752.147)"/>
        <path id="Path_98" d="M854.33 754.028a1.959 1.959 0 0 0-1.672-1.238 1.65 1.65 0 0 0-1.817 1.493 1.147 1.147 0 0 0 .035.317c0 .04-.008.078-.008.119a1.767 1.767 0 0 0 3.027 1.088 1.666 1.666 0 0 0 .435-1.779z" class="cls-1" data-name="Path 98" transform="translate(-847.089 -751.996)"/>
        <path id="Path_99" d="M879.98 751.974a1.558 1.558 0 0 0-1.348.816 2.371 2.371 0 0 0-.177 1.63 1.23 1.23 0 0 0 .863.915.73.73 0 0 0 .355.178 1.857 1.857 0 0 0 1.619-.432 1.878 1.878 0 0 0 .629-1.385 1.827 1.827 0 0 0-1.941-1.722z" class="cls-1" data-name="Path 99" transform="translate(-847.944 -751.971)"/>
    </g>
</svg>
