<svg xmlns="http://www.w3.org/2000/svg" width="121.981" height="74.73" viewBox="0 0 121.981 74.73">
    <defs>
        <style>
            .cls-1{fill:#231f20}
        </style>
    </defs>
    <g id="Group_87" data-name="Group 87" transform="translate(-337.838 -192.645)">
        <path id="Path_200" d="M458.505 249.632c-2.365-3.985-6.23-5.41-10.365-5.656 3.176-5.849 3.27-13.273-1.147-18.873-5.363-6.8-15-7.747-22.171-3.844-2.438-5.49-7.485-9.59-14.025-9.5a14.813 14.813 0 0 0-12.722 7.846c-3.387-4.042-7.828-6.639-13.857-5.21-7.517 1.782-11.553 7.94-14.508 14.5-6.585-3.8-15.559-3.788-20.36 3.015a13.205 13.205 0 0 0-.24 14.643c-3.7.116-7.167 1.316-9.614 4.738-3.247 4.54-1.428 10.271 2.891 13.318 7.087 5 18.361 1.792 26.36 1.3q15.5-.955 31.049-.922t31.045 1.057c7.821.516 17.644 2.835 24.334-2.536 4.096-3.287 6.177-9.081 3.33-13.876zm-42.761 8.948c-5.314-.185-32.24-.124-40.376.267a3.82 3.82 0 0 0 .263-.319c3.049-4.548 5.829-9.585 9.437-13.716 2.928-3.352 14.909-9.567 13.588.4-.476 3.588 4.606 4.141 6.248 1.692 2.483-3.7 7.58-9.1 12.571-6.182 5.536 3.24-1.913 17.132-1.731 17.858z" class="cls-1" data-name="Path 200"/>
        <path id="Path_201" d="M363.076 199.727a6.826 6.826 0 0 0-5.829-4.317 5.753 5.753 0 0 0-6.332 5.2 4.009 4.009 0 0 0 .123 1.1c-.008.138-.028.275-.026.414.048 5.509 6.931 7.23 10.549 3.794a5.808 5.808 0 0 0 1.515-6.191z" class="cls-1" data-name="Path 201"/>
        <path id="Path_202" d="M449.489 192.655a5.431 5.431 0 0 0-4.7 2.843 8.25 8.25 0 0 0-.617 5.68 4.281 4.281 0 0 0 3.006 3.189 2.585 2.585 0 0 0 1.237.622 6.475 6.475 0 0 0 5.644-1.508 6.552 6.552 0 0 0 2.191-4.825c.016-3.515-3.39-6.195-6.761-6.001z" class="cls-1" data-name="Path 202"/>
    </g>
</svg>
