<svg xmlns="http://www.w3.org/2000/svg" width="141.654" height="60.236" viewBox="0 0 141.654 60.236">
    <defs>
        <style>
            .cls-1{fill:#231f20}
        </style>
    </defs>
    <g id="Group_91" data-name="Group 91" transform="translate(-1446.704 -601.527)">
        <path id="Path_214" d="M1588.063 603.475a2.553 2.553 0 0 0-2.321-1.947c-21.472.674-114.95.674-136.423 0a2.554 2.554 0 0 0-2.321 1.947c-1.213 4.044 1.479 7.494 5.22 8.968 3.077 1.212 5.96.786 8.455 3.477 1.425 1.538 2.262 3.67 3.615 5.3 6.141 7.4 16.4 9.864 25.658 9.577 4.762-.148 9.755-1.024 13.939-3.409 4.533-2.584 5.867-6.37 8.672-10.4a5.485 5.485 0 0 1 .8-.909 6.246 6.246 0 0 1 8.34 0 5.485 5.485 0 0 1 .8.909c2.805 4.033 4.138 7.819 8.672 10.4 4.183 2.385 9.177 3.261 13.938 3.409 9.256.287 19.517-2.175 25.658-9.577 1.353-1.63 2.191-3.762 3.616-5.3 2.494-2.691 5.377-2.265 8.455-3.477 3.749-1.474 6.44-4.924 5.227-8.968zm-105.626 9.678l-2.833 9.809a2.28 2.28 0 0 0 .178 1.811 25.229 25.229 0 0 1-5.514-2.087 2.347 2.347 0 0 0 .33-.941 104.621 104.621 0 0 1 2.728-13.232 2.507 2.507 0 0 0 .062-1.117l6.3.2zm2.3 12.484v-.014l2.514-11.141 1.715-5.938a2.57 2.57 0 0 0 .1-.781l4.651.146a3.034 3.034 0 0 0-.131.351 85.542 85.542 0 0 0-1.972 9.4q-.917 4.11-1.923 8.2a42.385 42.385 0 0 1-4.95-.223zm59.265.183a30.224 30.224 0 0 1-4.411-.54c.016-.083.041-.159.05-.248a173.574 173.574 0 0 1 2.676-17.154l4.484-.141q-1.775 8.987-2.795 18.083z" class="cls-1" data-name="Path 214"/>
        <path id="Path_215" d="M1536.645 652.732a6.394 6.394 0 0 0-7.727 1.6 2.577 2.577 0 0 0 0 3.535 2.518 2.518 0 0 0 3.536 0c.448-.561 1.186-1.124 1.942-.7a1.455 1.455 0 0 1 .588 1.473c-.694 3.135 4.125 4.474 4.822 1.329a6.49 6.49 0 0 0-3.161-7.237z" class="cls-1" data-name="Path 215"/>
    </g>
</svg>
