<svg xmlns="http://www.w3.org/2000/svg" width="168.607" height="62.143" viewBox="0 0 168.607 62.143">
    <defs>
        <style>
            .cls-1{fill:#231f20}
        </style>
    </defs>
    <g id="Group_94" data-name="Group 94" transform="translate(-1416.227 -338.74)">
        <g id="Group_92" data-name="Group 92">
            <path id="Path_216" d="M1465.106 349.364l-1.91-8.734c-.687-3.142-5.574-2.079-4.884 1.074l1.527 6.987.084.394a124.717 124.717 0 0 0-22.164 7.152 2.527 2.527 0 0 0-1.3 2.763c2.009 9.2 15.875 2.189 21.222.649 2.7-.778 7.275-1.166 8.2-4.4.519-1.831-.395-4.149-.775-5.885z" class="cls-1" data-name="Path 216"/>
            <path id="Path_217" d="M1466.557 361.7a5.135 5.135 0 0 0-7.8.8 3.744 3.744 0 0 0-.577 1.9 2.867 2.867 0 0 0 .057 2.4 5.132 5.132 0 0 0 3.184 3.154 5.258 5.258 0 0 0 4.2-.463 5.131 5.131 0 0 0 .936-7.791z" class="cls-1" data-name="Path 217"/>
        </g>
        <g id="Group_93" data-name="Group 93">
            <path id="Path_218" d="M1536.557 349.364l1.91-8.734c.687-3.142 5.574-2.079 4.884 1.074l-1.527 6.987-.084.394a124.715 124.715 0 0 1 22.164 7.152 2.527 2.527 0 0 1 1.3 2.763c-2.009 9.2-15.875 2.189-21.222.649-2.7-.778-7.275-1.166-8.2-4.4-.517-1.831.395-4.149.775-5.885z" class="cls-1" data-name="Path 218"/>
            <path id="Path_219" d="M1535.106 361.7a5.135 5.135 0 0 1 7.8.8 3.746 3.746 0 0 1 .577 1.9 2.868 2.868 0 0 1-.057 2.4 5.133 5.133 0 0 1-3.184 3.154 5.258 5.258 0 0 1-4.2-.463 5.131 5.131 0 0 1-.936-7.791z" class="cls-1" data-name="Path 219"/>
        </g>
        <path id="Path_220" d="M1486.011 379.545c-5.647-2.528-13.258 1.024-18.445 3.172-14.707 6.091-29.753 10.589-45.42 4.98a2.245 2.245 0 0 0-1.43-.067c-.229-.109-.459-.212-.687-.323-2.882-1.4-5.42 2.91-2.523 4.317a89.816 89.816 0 0 0 41.642 9.228c9.078-.242 26.718-.694 30.6-11.142 1.446-3.889.223-8.392-3.737-10.165zm-1.722 6.3c4.21 9.3-24.531 10.123-29.49 10a82.521 82.521 0 0 1-10.387-.925q3.228-.381 6.433-1.086a89.514 89.514 0 0 0 15.411-5.179c2.763-1.164 5.513-2.369 8.366-3.3z" class="cls-1" data-name="Path 220"/>
        <path id="Path_221" d="M1511.313 389.71c3.883 10.448 21.522 10.9 30.6 11.142a89.819 89.819 0 0 0 41.642-9.228c2.9-1.407.358-5.718-2.524-4.317-.227.111-.458.214-.686.323a2.248 2.248 0 0 0-1.431.067c-15.666 5.609-30.713 1.111-45.42-4.98-5.186-2.148-12.8-5.7-18.444-3.172-3.96 1.773-5.182 6.276-3.737 10.165zm5.459-3.86c1.258-2.778 2.8-2.2 5.471-1.655a37.629 37.629 0 0 1 4.2 1.162c2.852.934 5.6 2.139 8.366 3.3a89.506 89.506 0 0 0 15.41 5.179q3.2.707 6.434 1.086a82.539 82.539 0 0 1-10.387.925c-4.966.126-33.704-.698-29.494-9.997z" class="cls-1" data-name="Path 221"/>
    </g>
</svg>
