<svg xmlns="http://www.w3.org/2000/svg" width="43.902" height="45.691" viewBox="0 0 43.902 45.691">
    <defs>
        <style>
            .cls-1{fill:#6ae2af}
        </style>
    </defs>
    <g id="Group_7" data-name="Group 7" transform="translate(-476.549 -747.268)">
        <path id="Path_60" d="M492.882 747.615l.777.07a4.04 4.04 0 0 0-.777-.07z" class="cls-1" data-name="Path 60"/>
        <path id="Path_61" d="M519.788 786.758l.061.166a.157.157 0 0 0-.061-.166z" class="cls-1" data-name="Path 61" transform="translate(0 -.312)"/>
        <path id="Path_62" d="M495.965 747.615a1.1 1.1 0 0 0 .438.327.4.4 0 0 0 .09-.122z" class="cls-1" data-name="Path 62"/>
        <path id="Path_63" d="M520.11 777.968a.484.484 0 0 1-.907-.022l.587-.15c-.363-.241-.221.391-.666-.105.068-.477.669-.32.86-.047l-.2-.579c.176-.035.268.1.492.137-.365-.238.59-1-.044-1.344l.175-.033c.005-1.276-.2-1.854-.227-2.894-.508-.02-.4-.426-.805-.736a9.662 9.662 0 0 0 .518-2.532c-.253-.648-.43-.19-.732-.48.462-.048.419-.967.751-.491a10.857 10.857 0 0 0-.467-2.808c-.19.152-.272.323-.43.234-.076-.253.194-.577.416-.54l.048.067c-.68-1.539 1.273-3.545.431-4.8l-.5-1.294c.081-.6.348.358.634-.083-.771-1.4.112-2.207-.4-3.357.682-.445.658-1.236.572-2.064a10.763 10.763 0 0 1-.094-1.235l.006-.153.013-.262c.011-.174.027-.345.051-.512a5.318 5.318 0 0 1 .227-.986c-.107.078-.214.155-.321.227a.518.518 0 0 1-.018-.6 2.173 2.173 0 0 0 .275-.627c-.249.193-.289.746-.463.482-.067-.763-.1-1.523-.1-2.323-1.02 0-2.014-.033-3.046-.089a97.134 97.134 0 0 1-1.579-.1l-.2-.015-.1-.007h-.08l-.229-.03-.457-.064c-1.221-.172-2.445-.371-3.649-.483-1.066-.079-.605 1.537-1.949.828l.381-.552c-2.151.662-4.4-.023-6.505.539.126-.127.13-.293.335-.291-.445-.4-1.645-.02-1.652.308-.328-.038-.076-.3-.278-.463-.447-.236-1.12.512-1.357.113-.027-.043.035-.084.1-.117-.379.109-1.225-.05-.973.37-.79-.22-1.512.206-2.142-.068-.411.517-1.353-.249-1.484.483.057-.756-1.385-.61-1.885-.254.167-.228-.435-.236-.239-.553-.57.011-1.093.151-.993.539-1.051-.9-2.112.728-2.7-.431a40.251 40.251 0 0 1-4.786.858c.055-.754 1.685-.075 1.619-.866-1.445.311-2.279.957-3.713.776-.371-.1.211-.327.336-.456a6.291 6.291 0 0 1-1.045.126l-.4.008h-1.263c-.555 0-1.106 0-1.627.02a8.2 8.2 0 0 0-1.415.165l.025.135c.112.024.225.157.337.342a7.523 7.523 0 0 1 .391.809 6.367 6.367 0 0 0 .564 1.158c-.237-.227-.376-.287-.466-.233s-.138.221-.189.38-.11.313-.241.347-.332-.044-.667-.429c.07.29.245.651.493.655-.072.322-.217.437-.5-.014a2.4 2.4 0 0 0 .372 1.15.755.755 0 0 1 .214.63c-.179 0-.248-.156-.459-.234a1.474 1.474 0 0 1 .547 1.415c-.094-.034-.213.018-.24-.1.083 1.072.918 1.844.587 3.032-.778-.358-.256.412-.93.477l.2.651.327-.261c-.011.571.48 1.075.259 1.565l-.278-.424.128 1.07.256-.6c.347.577.852-.063.665.7-.069-.154-.009.571-.406.868a.951.951 0 0 1 .274.994c-.216.11-.746-.087-.889-.017.563.279.156 1.337.756 1.689a.776.776 0 0 0-.566-.085l.457.234c-.146.264-.217.3-.5.259-.084.8.855-.252.486.691-.037-.073-.1-.039-.175-.193-.192.948.291 1.831.066 2.7-.679.257-.166-.761-.738-.467.122 1.255.813 2.6.653 3.815l.075-.226c.957.169-.473.9-.022 1.52-.071-.151-.532-.2-.425-.157a8.077 8.077 0 0 0 .537 2.962l-.246-.156a10.043 10.043 0 0 0-.239 1.822c.246.157.206.46.563.276-1.4 1.633.751 3.115-.416 4.564 0-.173-.215-.412-.215-.275l.226 1.235c.417-.1.252-.162.577-.421a.878.878 0 0 1 .238.232v.359c-.244-.1-.521.278-.7.464.127-.04.268.043.4.022-.491.427.035.337.3.482v.5l-.182-.039a2.666 2.666 0 0 0 .182.382v.633c-.268 0-.122-.38-.466-.4.016.28.3.557.466.825v.574c-.011.012-.019.025-.032.037-.135-.212-.137-.516-.271-.729-.566.492-.422.549-.512.915l.013-.036-.257.844.154-.215c1.168.579.366 1.179.9 1.936v.026c-.588-.572-.341.011-.849-.047-.152.215-.322.541-.476.448.441.4-.347.664.3 1.225-.175.026-.017.426-.459.336.139.518.307-.122.527-.078.431.57-.129 1.284-.178 2.064h42.536a2.365 2.365 0 0 1 .115-.209c-.763-.241.34-1.649-.724-1.755.527-.951.717-.679 1.072-2.019.049-.358-.664-.533-.775-.975l.556-.011-.584-.6.666-.319-.143-.415a.443.443 0 0 1-.41.326 1.462 1.462 0 0 1 .673-1.6l-.471-1.533c.166.025.251.173.342.33-.3-.558.647-.043.167-.735-.126.1-.331-.055-.444-.071a2.387 2.387 0 0 0 .2-1.854l.383.121c.083-1.146-.202-2.401-.192-3.678z" class="cls-1" data-name="Path 63"/>
        <path id="Path_64" d="M519.983 784.434a1.7 1.7 0 0 0 .1.165c-.036-.053-.068-.11-.1-.165z" class="cls-1" data-name="Path 64" transform="translate(0 -.312)"/>
        <path id="Path_65" d="M476.932 748.176a3.277 3.277 0 0 1-.328 0c-.013.3-.027.581.251.772l-.1-.454a.177.177 0 0 1 .069 0 .572.572 0 0 1-.1-.206.525.525 0 0 1 .208-.112z" class="cls-1" data-name="Path 65"/>
        <path id="Path_66" d="M499.518 747.639a.416.416 0 0 0 .1-.044c-.025.011-.063.026-.1.044z" class="cls-1" data-name="Path 66"/>
        <path id="Path_67" d="M476.826 748.5z" class="cls-1" data-name="Path 67"/>
        <path id="Path_68" d="M520.038 788.266h-.128l.112.118z" class="cls-1" data-name="Path 68" transform="translate(0 -.312)"/>
        <path id="Path_69" d="M477.437 783.6a.314.314 0 0 0 .13-.1.253.253 0 0 0-.13.1z" class="cls-1" data-name="Path 69" transform="translate(0 -.246)"/>
        <path id="Path_70" d="M477.453 786.724l-.181.455a2.034 2.034 0 0 0 .181-.455z" class="cls-1" data-name="Path 70" transform="translate(0 -.312)"/>
        <path id="Path_71" d="M477.2 789.2a.945.945 0 0 0 .218.049v-.005z" class="cls-1" data-name="Path 71" transform="translate(0 -.312)"/>
        <path id="Path_72" d="M476.932 748.176a.577.577 0 0 0 .15-.021c.318-.092.074-.055-.15.021z" class="cls-1" data-name="Path 72"/>
        <path id="Path_73" d="M477.79 761.532a2.032 2.032 0 0 1-.239-.377c-.039.209-.051.371.239.377z" class="cls-1" data-name="Path 73" transform="translate(0 -.095)"/>
        <path id="Path_74" d="M492.8 747.607v.008h.087z" class="cls-1" data-name="Path 74"/>
        <path id="Path_75" d="M477.56 760.61a.608.608 0 0 0-.009.545.913.913 0 0 0 .009-.545z" class="cls-1" data-name="Path 75" transform="translate(0 -.092)"/>
        <path id="Path_76" d="M477.326 766.622l-.287.337.423.16z" class="cls-1" data-name="Path 76" transform="translate(0 -.133)"/>
    </g>
</svg>
