<svg xmlns="http://www.w3.org/2000/svg" width="42.613" height="46.691" viewBox="0 0 42.613 46.691">
    <defs>
        <style>
            .cls-1{fill:#71bfff}
        </style>
    </defs>
    <g id="Group_6" data-name="Group 6" transform="translate(-403.974 -746.58)">
        <path id="Path_39" d="M430.721 747.857a.762.762 0 0 1 .033-.072.5.5 0 0 0-.256.07 1.187 1.187 0 0 1 .223.002z" class="cls-1" data-name="Path 39"/>
        <path id="Path_40" d="M419.1 747.365a.433.433 0 0 0 .023.072c.022-.051.022-.083-.023-.072z" class="cls-1" data-name="Path 40"/>
        <path id="Path_41" d="M430.874 747.877a1.777 1.777 0 0 1 .214.056.5.5 0 0 0-.214-.056z" class="cls-1" data-name="Path 41"/>
        <path id="Path_42" d="M408.3 756.09c-.291-.107.015-.743-.437-.032a1.169 1.169 0 0 1 .437.032z" class="cls-1" data-name="Path 42"/>
        <path id="Path_43" d="M430.7 748.017c.053-.1.1-.137.178-.14a1.4 1.4 0 0 0-.153-.02.188.188 0 0 0-.025.16z" class="cls-1" data-name="Path 43"/>
        <path id="Path_44" d="M404.409 787.555l-.051-.158a.159.159 0 0 0 .051.158z" class="cls-1" data-name="Path 44"/>
        <path id="Path_45" d="M428.32 748.212l-.075-.045a.079.079 0 0 0 .075.045z" class="cls-1" data-name="Path 45"/>
        <path id="Path_46" d="M446.174 791.06c.093-.329.3.187.413.3-.282-1.282.062-2.478-.31-3.619.064 0 .133.126.185.243-.022-.225.1-.523-.21-.5l.084.219c-.45.359-.941-.892-1.179-.932.89.381.224-1.127 1.348-.521a.415.415 0 0 0-.414-.3c.061-.219.182-.289.419-.066-.169-.8-.5-.519-.492-1.249.15 0 .208.15.385.226a1.521 1.521 0 0 1-.459-1.357c.079.032.178-.018.2.09-.069-1.027-.77-1.767-.492-2.907.652.343.215-.4.78-.457l-.169-.624-.274.25c.01-.547-.4-1.03-.217-1.5l.233.406-.107-1.025-.215.58c-.291-.553-.715.06-.558-.669.058.148.007-.547.341-.832a1 1 0 0 1-.229-.954c.181-.105.625.085.745.016-.472-.267-.131-1.281-.634-1.619a.574.574 0 0 0 .475.081l-.384-.224c.123-.253.183-.29.419-.249.07-.762-.717.242-.408-.663.031.071.088.037.147.185.161-.908-.244-1.755-.055-2.59.569-.247.139.729.619.447-.1-1.206-.678-2.487-.551-3.663-.019.075-.038.151-.059.222-.4-.08-.309-.3-.163-.582a2.379 2.379 0 0 0 .2-.458.535.535 0 0 0-.076-.467c.071.144.46.168.368.133a2.808 2.808 0 0 0-.03-.645 4.119 4.119 0 0 0-.18-.676c-.15-.468-.39-.971-.636-1.556l.237.109a3.094 3.094 0 0 0-.072-.907c-.065-.324-.16-.646-.186-.918-.236-.1-.305-.388-.531-.124a2.1 2.1 0 0 0 .1-.67 1.931 1.931 0 0 0-.029-.308 2.153 2.153 0 0 0-.083-.287 3.1 3.1 0 0 0-.256-.528 5.036 5.036 0 0 0-.342-.476l-.351-.455a3.5 3.5 0 0 1-.315-.459 1.94 1.94 0 0 1-.265-1.1c.088.149.364.271.295.15-.134-.164-.259-.332-.4-.49l-.415-.473c-.24.274-.089.253-.181.614a1.1 1.1 0 0 1-.738-.457c.493.314.468-.319.482-.628-.064.1-.208.1-.286.175.07-.439-.09-.361-.284-.286s-.42.142-.519-.319l.173-.077c-.274-.2-.639-.275-.827-.563.213-.372.366.134.638-.061a1.767 1.767 0 0 0-.732-.323c-.253-.089-.475-.186-.479-.485.224.072.434.283.65.369a1.205 1.205 0 0 0-.067-.615c-.056-.115-.137-.183-.236-.342l.017.033c-.14-.258-.3-.5-.455-.752l.069.243a1.025 1.025 0 0 1-1.1-.234 1.347 1.347 0 0 0-1.046-.472c1.036-.019.342-.213.674-.535-.089-.233-.264-.552-.111-.6-.271.018-.363-.137-.489-.289a.626.626 0 0 0-.668-.242c.061-.136-.355-.245-.076-.506-.511-.19-.033.284-.174.413a.994.994 0 0 1-.617-.243 6.3 6.3 0 0 1-.558-.507 2.625 2.625 0 0 0-.656-.491 1.7 1.7 0 0 0-.4-.146 1.453 1.453 0 0 0-.469-.017 3.012 3.012 0 0 0-.66-.028 4.594 4.594 0 0 0-.527.1 4.535 4.535 0 0 1-.74.125 14.415 14.415 0 0 0-.4-.139.274.274 0 0 1 .165-.19 1.075 1.075 0 0 1 .284-.094 1.552 1.552 0 0 0-.592-.358 1.856 1.856 0 0 0-.667-.047c.125-.1.063-.229-.032-.428-.376-.068-.377.453-.8.129a1.914 1.914 0 0 1 .508-.491c-.476.031-.961.19-1.434.25-.075-.274.343-.335.54-.47-.271.01-.616.008-.919.05a.888.888 0 0 0-.669.342l.229.14a.354.354 0 0 1 .177-.369c.49-.25.609.248.6.4l-.333.037c.092.457.4.473.783.408a2.747 2.747 0 0 1 1.134-.089l-.3.387a19.438 19.438 0 0 0-3.157-.55c.308-.226.7-.6.557-1.083-.35.444-.407.247-.769.792a.322.322 0 0 1-.377-.375c-.1.121-.395-.122-.541.188a.8.8 0 0 0 .535.324.963.963 0 0 0 .64-.175c.083.116-.017.239-.046.329q-.851-.076-1.721-.079a5.39 5.39 0 0 0 .074-.6.2.2 0 0 0 .193.052l.191-.5-.406.123c-.062-.291-.258-.555-.758-.764-.25.146-.494.308-.732.472l-.269-.323.637-.069c-.382-.295-.6.007-.835.221a.572.572 0 0 0-.355-.343q-.339.383-.654.762c-.131-.262.257-.585-.267-.671-.3.369.418.553-.11.855-.4-.253-.352-.527-.716-.184-.094-.168-.029-.3.124-.406a1.1 1.1 0 0 1-.3.168c-.108.049-.221.092-.328.138-.213.093-.4.2-.447.4-.232-.156-.532-.034-.791.028s-.479.083-.56-.238a2.105 2.105 0 0 1-.787.849c.163-.48-.149-.388-.516-.259a1.788 1.788 0 0 1-.546.127.31.31 0 0 1-.336-.28.965.965 0 0 1-.3.529 3.637 3.637 0 0 1-.545.392c-.2.125-.419.247-.62.384a2.1 2.1 0 0 0-.505.494c.01-.061.028-.176.083-.212a3.189 3.189 0 0 1-.968.107c.262.538-.28 1.038-.373 1.567-.394-.071-.43-.259-.417-.478s.07-.466-.163-.639c.294.378-.545.98-.14 1.187-.559-.011-.4.1-.886-.147.2.313.141.4.03.483a.482.482 0 0 0-.255.462.846.846 0 0 1-.611-.074c-.105-.042-.167-.023-.346.306-.2.033-.233-.106-.212-.255a1.324 1.324 0 0 1 .093-.309c-.543.5.126.636.236.974-.252.348-.392.344-.524.254s-.254-.273-.459-.265a2.553 2.553 0 0 0-.227.793 1.179 1.179 0 0 1-.216.636c-.089-.038-.165 0-.193-.145a1.15 1.15 0 0 1-.179.516 5.708 5.708 0 0 1-.344.516 5.899 5.899 0 0 0-.181.265 2.343 2.343 0 0 0-.143.283 1.2 1.2 0 0 0-.105.6.348.348 0 0 1-.163-.009 1.757 1.757 0 0 1 .69.352c-.169.257-.011.665-.383.562.11-.151-.006-.245-.053-.382l-.041.357c-.6-.036.085-.469-.239-.684-.1.319-.166.687-.234 1.023a1.5 1.5 0 0 1-.337.807c-.506-.156.417-1.075-.307-.733.186-.188.363-.38.56-.556-1.008.07.3-.369-.729-.366a2.45 2.45 0 0 0-.507.979 2.8 2.8 0 0 1-.455 1c.159.332.411.115.574.445a1.007 1.007 0 0 1-.3.73 1.315 1.315 0 0 1-.528.252 1.088 1.088 0 0 0-.472.213.58.58 0 0 0-.092.6c.116.189.321.36.426.556s.107.414-.155.723a31.22 31.22 0 0 1-.486-.413c-.324.948.634.756.026 1.655-.182-.227-.013-.8-.114-.667-.6.547.214.539.1 1.029h-.523a21.692 21.692 0 0 0 .155 3.392c-.152-.067-.307-.275-.472-.008a8.348 8.348 0 0 1 .008 2.176 19.182 19.182 0 0 1-.4 2.078l.444.5c-.005.116-.2.215-.287.09-.168.508.282.026.457.27.031.289-.256.382-.389.2.377.9.812 2.555.336 3.5l-.132-.185c-.181.736.91.831.5 1.513l-.079-.13c-.192 1.6.215 3.362-.456 4.581.64.232-.286 1.581.607 1.684-.442.912-.6.65-.9 1.935-.041.343.557.511.65.936l-.466.01.489.576-.558.306.12.4c.027-.159.209-.337.344-.313a1.478 1.478 0 0 1-.564 1.53l.394 1.471c-.142-.025-.214-.173-.292-.328.263.552-.54.048-.135.716.106-.1.278.052.373.068a2.581 2.581 0 0 0-.166 1.778l-.322-.115a8.26 8.26 0 0 0 0 1.067h42.144c-.015-.117-.031-.235-.045-.353.209.015.3.161.337.353h.125a4.414 4.414 0 0 1-.364-2.204z" class="cls-1" data-name="Path 46"/>
        <path id="Path_47" d="M404.2 786.119h.107l-.094-.113z" class="cls-1" data-name="Path 47"/>
        <path id="Path_48" d="M441.991 756.147a.21.21 0 0 0 .033-.142.278.278 0 0 0-.033.142z" class="cls-1" data-name="Path 48"/>
        <path id="Path_49" d="M440.022 753.62c-.069-.145-.136-.293-.213-.432a3.15 3.15 0 0 0 .213.432z" class="cls-1" data-name="Path 49"/>
        <path id="Path_50" d="M438.33 751.791a.694.694 0 0 0-.153.112v.005z" class="cls-1" data-name="Path 50"/>
        <path id="Path_51" d="M446.462 787.982a.307.307 0 0 0 .019.091c.083.213.05.068-.019-.091z" class="cls-1" data-name="Path 51"/>
        <path id="Path_52" d="M445.468 776.818a2 2 0 0 1 .2.359c.032-.199.042-.353-.2-.359z" class="cls-1" data-name="Path 52"/>
        <path id="Path_53" d="M445.662 777.7a.655.655 0 0 0 .007-.519.983.983 0 0 0-.007.519z" class="cls-1" data-name="Path 53"/>
        <path id="Path_54" d="M428.445 747.26a.123.123 0 0 1-.024.066l.142-.033z" class="cls-1" data-name="Path 54"/>
        <path id="Path_55" d="M428.421 747.326l-.14.033c.061.007.114.011.14-.033z" class="cls-1" data-name="Path 55"/>
        <path id="Path_56" d="M427.987 747.429l.294-.07c-.097-.014-.216-.042-.294.07z" class="cls-1" data-name="Path 56"/>
        <path id="Path_57" d="M431.75 748.241l.083-.135a.322.322 0 0 0-.083.135z" class="cls-1" data-name="Path 57"/>
        <path id="Path_58" d="M432.248 748.316c.156.145.316.291.467.214-.207-.126-.462-.51-.814-.531l-.068.107c.111-.084.26.064.415.21z" class="cls-1" data-name="Path 58"/>
        <path id="Path_59" d="M445.857 771.971l.241-.32-.355-.153z" class="cls-1" data-name="Path 59"/>
    </g>
</svg>
